<svg t="1692099082691" class="icon" viewBox="0 0 1024 1024" version="1.1" xmlns="http://www.w3.org/2000/svg" p-id="2512" width="128" height="128"><path d="M810.666667 896H213.333333c-72.533333 0-128-55.466667-128-128V384c0-72.533333 55.466667-128 128-128h42.666667c25.6 0 42.666667-17.066667 42.666667-42.666667 0-46.933333 38.4-85.333333 85.333333-85.333333h256c46.933333 0 85.333333 38.4 85.333333 85.333333 0 25.6 17.066667 42.666667 42.666667 42.666667h42.666667c72.533333 0 128 55.466667 128 128v384c0 72.533333-55.466667 128-128 128zM213.333333 341.333333c-25.6 0-42.666667 17.066667-42.666666 42.666667v384c0 25.6 17.066667 42.666667 42.666666 42.666667h597.333334c25.6 0 42.666667-17.066667 42.666666-42.666667V384c0-25.6-17.066667-42.666667-42.666666-42.666667h-42.666667c-72.533333 0-128-55.466667-128-128H384c0 72.533333-55.466667 128-128 128H213.333333z" p-id="2513"></path><path d="M512 725.333333c-93.866667 0-170.666667-76.8-170.666667-170.666666s76.8-170.666667 170.666667-170.666667 170.666667 76.8 170.666667 170.666667-76.8 170.666667-170.666667 170.666666z m0-256c-46.933333 0-85.333333 38.4-85.333333 85.333334s38.4 85.333333 85.333333 85.333333 85.333333-38.4 85.333333-85.333333-38.4-85.333333-85.333333-85.333334z" p-id="2514"></path></svg>