<?xml version="1.0" encoding="utf-8"?>
<!-- Generator: Adobe Illustrator 18.0.0, SVG Export Plug-In . SVG Version: 6.00 Build 0)  -->
<!DOCTYPE svg PUBLIC "-//W3C//DTD SVG 1.1//EN" "http://www.w3.org/Graphics/SVG/1.1/DTD/svg11.dtd">
<svg version="1.1" id="Layer_1" xmlns="http://www.w3.org/2000/svg" xmlns:xlink="http://www.w3.org/1999/xlink" x="0px" y="0px"
	 viewBox="0 0 24 24" enable-background="new 0 0 24 24" xml:space="preserve">
<path d="M19,21H5c-1.7,0-3-1.3-3-3V9c0-1.7,1.3-3,3-3h1c0.6,0,1-0.4,1-1c0-1.1,0.9-2,2-2h6c1.1,0,2,0.9,2,2c0,0.6,0.4,1,1,1h1
	c1.7,0,3,1.3,3,3v9C22,19.7,20.7,21,19,21z M5,8C4.4,8,4,8.4,4,9v9c0,0.6,0.4,1,1,1h14c0.6,0,1-0.4,1-1V9c0-0.6-0.4-1-1-1h-1
	c-1.7,0-3-1.3-3-3H9c0,1.7-1.3,3-3,3H5z"/>
<path d="M12,17c-2.2,0-4-1.8-4-4c0-2.2,1.8-4,4-4c2.2,0,4,1.8,4,4C16,15.2,14.2,17,12,17z M12,11c-1.1,0-2,0.9-2,2c0,1.1,0.9,2,2,2
	c1.1,0,2-0.9,2-2C14,11.9,13.1,11,12,11z"/>
</svg>
