<?xml version="1.0" encoding="utf-8"?>
<!-- Generator: Adobe Illustrator 18.0.0, SVG Export Plug-In . SVG Version: 6.00 Build 0)  -->
<!DOCTYPE svg PUBLIC "-//W3C//DTD SVG 1.1//EN" "http://www.w3.org/Graphics/SVG/1.1/DTD/svg11.dtd">
<svg version="1.1" id="Layer_1" xmlns="http://www.w3.org/2000/svg" xmlns:xlink="http://www.w3.org/1999/xlink" x="0px" y="0px"
	 viewBox="0 0 24 24" enable-background="new 0 0 24 24" xml:space="preserve">
<g>
	<path d="M12,6h9c0.6,0,1-0.4,1-1s-0.4-1-1-1h-9c-0.6,0-1,0.4-1,1S11.4,6,12,6z"/>
	<path d="M18,9c-0.6,0-1,0.4-1,1s0.4,1,1,1h1c0.6,0,1-0.4,1-1s-0.4-1-1-1H18z"/>
	<path d="M10,16c0.6,0,1-0.4,1-1s-0.4-1-1-1H5c-0.6,0-1,0.4-1,1s0.4,1,1,1H10z"/>
	<path d="M21,14h-2c-0.6,0-1,0.4-1,1s0.4,1,1,1h2c0.6,0,1-0.4,1-1S21.6,14,21,14z"/>
	<path d="M12,19H3c-0.6,0-1,0.4-1,1s0.4,1,1,1h9c0.6,0,1-0.4,1-1S12.6,19,12,19z"/>
	<path d="M15.7,14.3C15.7,14.3,15.7,14.3,15.7,14.3l-5-5c0,0,0,0,0,0l-7-7c-0.4-0.4-1-0.4-1.4,0s-0.4,1,0,1.4L7.6,9H3
		c-0.6,0-1,0.4-1,1s0.4,1,1,1h6.6l3.5,3.5C13.1,14.7,13,14.8,13,15c0,0.6,0.4,1,1,1h0.6l3,3H16c-0.6,0-1,0.4-1,1s0.4,1,1,1h3
		c0.2,0,0.3-0.1,0.5-0.1l0.8,0.8c0.2,0.2,0.5,0.3,0.7,0.3s0.5-0.1,0.7-0.3c0.4-0.4,0.4-1,0-1.4L15.7,14.3z"/>
</g>
</svg>
