<?xml version="1.0" encoding="utf-8"?>
<!-- Generator: Adobe Illustrator 18.0.0, SVG Export Plug-In . SVG Version: 6.00 Build 0)  -->
<!DOCTYPE svg PUBLIC "-//W3C//DTD SVG 1.1//EN" "http://www.w3.org/Graphics/SVG/1.1/DTD/svg11.dtd">
<svg version="1.1" id="Layer_1" xmlns="http://www.w3.org/2000/svg" xmlns:xlink="http://www.w3.org/1999/xlink" x="0px" y="0px"
	 viewBox="0 0 24 24" enable-background="new 0 0 24 24" xml:space="preserve">
<g>
	<path d="M12,6h9c0.6,0,1-0.4,1-1s-0.4-1-1-1h-9c-0.6,0-1,0.4-1,1S11.4,6,12,6z"/>
	<path d="M5,6h3c0.6,0,1-0.4,1-1S8.6,4,8,4H5C4.4,4,4,4.4,4,5S4.4,6,5,6z"/>
	<path d="M18,9c-0.6,0-1,0.4-1,1s0.4,1,1,1h1c0.6,0,1-0.4,1-1s-0.4-1-1-1H18z"/>
	<path d="M3,11h11c0.6,0,1-0.4,1-1s-0.4-1-1-1H3c-0.6,0-1,0.4-1,1S2.4,11,3,11z"/>
	<path d="M21,14h-7c-0.6,0-1,0.4-1,1s0.4,1,1,1h7c0.6,0,1-0.4,1-1S21.6,14,21,14z"/>
	<path d="M5,14c-0.6,0-1,0.4-1,1s0.4,1,1,1h5c0.6,0,1-0.4,1-1s-0.4-1-1-1H5z"/>
	<path d="M12,19H3c-0.6,0-1,0.4-1,1s0.4,1,1,1h9c0.6,0,1-0.4,1-1S12.6,19,12,19z"/>
	<path d="M19,19h-3c-0.6,0-1,0.4-1,1s0.4,1,1,1h3c0.6,0,1-0.4,1-1S19.6,19,19,19z"/>
</g>
</svg>
