<svg t="1692098221032" class="icon" viewBox="0 0 1024 1024" version="1.1" xmlns="http://www.w3.org/2000/svg" p-id="2230" width="128" height="128"><path d="M891.733333 153.6c-4.266667-8.533333-12.8-17.066667-21.333333-21.333333-4.266667-4.266667-12.8-4.266667-17.066667-4.266667h-170.666666c-25.6 0-42.666667 17.066667-42.666667 42.666667s17.066667 42.666667 42.666667 42.666666h68.266666l-183.466666 183.466667c-17.066667 17.066667-17.066667 42.666667 0 59.733333 8.533333 8.533333 21.333333 12.8 29.866666 12.8s21.333333-4.266667 29.866667-12.8L810.666667 273.066667V341.333333c0 25.6 17.066667 42.666667 42.666666 42.666667s42.666667-17.066667 42.666667-42.666667V170.666667c0-4.266667 0-12.8-4.266667-17.066667zM396.8 567.466667L213.333333 750.933333V682.666667c0-25.6-17.066667-42.666667-42.666666-42.666667s-42.666667 17.066667-42.666667 42.666667v170.666666c0 4.266667 0 12.8 4.266667 17.066667 4.266667 8.533333 12.8 17.066667 21.333333 21.333333 4.266667 4.266667 12.8 4.266667 17.066667 4.266667h170.666666c25.6 0 42.666667-17.066667 42.666667-42.666667s-17.066667-42.666667-42.666667-42.666666H273.066667l183.466666-183.466667c17.066667-17.066667 17.066667-42.666667 0-59.733333s-42.666667-17.066667-59.733333 0zM853.333333 640c-25.6 0-42.666667 17.066667-42.666666 42.666667v68.266666l-183.466667-183.466666c-17.066667-17.066667-42.666667-17.066667-59.733333 0s-17.066667 42.666667 0 59.733333l183.466666 183.466667H682.666667c-25.6 0-42.666667 17.066667-42.666667 42.666666s17.066667 42.666667 42.666667 42.666667h170.666666c4.266667 0 12.8 0 17.066667-4.266667 8.533333-4.266667 17.066667-12.8 21.333333-21.333333 4.266667-4.266667 4.266667-12.8 4.266667-17.066667v-170.666666c0-25.6-17.066667-42.666667-42.666667-42.666667zM273.066667 213.333333H341.333333c25.6 0 42.666667-17.066667 42.666667-42.666666s-17.066667-42.666667-42.666667-42.666667H170.666667c-4.266667 0-12.8 0-17.066667 4.266667-8.533333 4.266667-17.066667 12.8-21.333333 21.333333-4.266667 4.266667-4.266667 12.8-4.266667 17.066667v170.666666c0 25.6 17.066667 42.666667 42.666667 42.666667s42.666667-17.066667 42.666666-42.666667V273.066667l183.466667 183.466666c8.533333 8.533333 17.066667 12.8 29.866667 12.8s21.333333-4.266667 29.866666-12.8c17.066667-17.066667 17.066667-42.666667 0-59.733333L273.066667 213.333333z" p-id="2231"></path></svg>