<?xml version="1.0" encoding="utf-8"?>
<!-- Generator: Adobe Illustrator 18.0.0, SVG Export Plug-In . SVG Version: 6.00 Build 0)  -->
<!DOCTYPE svg PUBLIC "-//W3C//DTD SVG 1.1//EN" "http://www.w3.org/Graphics/SVG/1.1/DTD/svg11.dtd">
<svg version="1.1" id="Layer_1" xmlns="http://www.w3.org/2000/svg" xmlns:xlink="http://www.w3.org/1999/xlink" x="0px" y="0px"
	 viewBox="0 0 24 24" enable-background="new 0 0 24 24" xml:space="preserve">
<path d="M21.9,5.8c-0.4-1-1.5-1.6-2.6-1.2c-4.9,1.8-9.7,1.8-14.6,0C4.5,4.5,4.2,4.5,4,4.5c-1.1,0-2,0.9-2,2v11c0,0.5,0.2,1,0.6,1.4
	C3,19.3,3.5,19.5,4,19.5c0.2,0,0.5,0,0.7-0.1c4.9-1.8,9.7-1.8,14.6,0c0.2,0.1,0.4,0.1,0.7,0.1c1.1,0,2-0.9,2-2v-11
	C22,6.2,22,6,21.9,5.8z M12,16c-2.7,0-5.3,0.5-8,1.5l0-11c5.3,2,10.7,2,16,0l0,11C17.4,16.5,14.7,16,12,16z"/>
</svg>
