<?xml version="1.0" encoding="utf-8"?>
<!-- Generator: Adobe Illustrator 18.0.0, SVG Export Plug-In . SVG Version: 6.00 Build 0)  -->
<!DOCTYPE svg PUBLIC "-//W3C//DTD SVG 1.1//EN" "http://www.w3.org/Graphics/SVG/1.1/DTD/svg11.dtd">
<svg version="1.1" id="Layer_1" xmlns="http://www.w3.org/2000/svg" xmlns:xlink="http://www.w3.org/1999/xlink" x="0px" y="0px"
	 viewBox="0 0 24 24" enable-background="new 0 0 24 24" xml:space="preserve">
<g>
	<path d="M9,4C8.4,4,8,4.4,8,5v1.6L3.7,2.3c-0.4-0.4-1-0.4-1.4,0s-0.4,1,0,1.4L6.6,8H5C4.4,8,4,8.4,4,9s0.4,1,1,1h4
		c0.1,0,0.3,0,0.4-0.1c0.2-0.1,0.4-0.3,0.5-0.5C10,9.3,10,9.1,10,9V5C10,4.4,9.6,4,9,4z"/>
	<path d="M9.4,14.1C9.3,14,9.1,14,9,14H5c-0.6,0-1,0.4-1,1s0.4,1,1,1h1.6l-4.3,4.3c-0.4,0.4-0.4,1,0,1.4C2.5,21.9,2.7,22,3,22
		s0.5-0.1,0.7-0.3L8,17.4V19c0,0.6,0.4,1,1,1s1-0.4,1-1v-4c0-0.1,0-0.3-0.1-0.4C9.8,14.4,9.6,14.2,9.4,14.1z"/>
	<path d="M14.6,9.9C14.7,10,14.9,10,15,10h4c0.6,0,1-0.4,1-1s-0.4-1-1-1h-1.6l4.3-4.3c0.4-0.4,0.4-1,0-1.4s-1-0.4-1.4,0L16,6.6V5
		c0-0.6-0.4-1-1-1s-1,0.4-1,1v4c0,0.1,0,0.3,0.1,0.4C14.2,9.6,14.4,9.8,14.6,9.9z"/>
	<path d="M17.4,16H19c0.6,0,1-0.4,1-1s-0.4-1-1-1h-4c-0.1,0-0.3,0-0.4,0.1c-0.2,0.1-0.4,0.3-0.5,0.5C14,14.7,14,14.9,14,15v4
		c0,0.6,0.4,1,1,1s1-0.4,1-1v-1.6l4.3,4.3c0.2,0.2,0.5,0.3,0.7,0.3s0.5-0.1,0.7-0.3c0.4-0.4,0.4-1,0-1.4L17.4,16z"/>
</g>
</svg>
