<?xml version="1.0" encoding="utf-8"?>
<!-- Generator: Adobe Illustrator 18.0.0, SVG Export Plug-In . SVG Version: 6.00 Build 0)  -->
<!DOCTYPE svg PUBLIC "-//W3C//DTD SVG 1.1//EN" "http://www.w3.org/Graphics/SVG/1.1/DTD/svg11.dtd">
<svg version="1.1" id="Layer_1" xmlns="http://www.w3.org/2000/svg" xmlns:xlink="http://www.w3.org/1999/xlink" x="0px" y="0px"
	 viewBox="0 0 24 24" enable-background="new 0 0 24 24" xml:space="preserve">
<g>
	<path d="M20.9,3.6c-0.1-0.2-0.3-0.4-0.5-0.5C20.3,3,20.1,3,20,3h-4c-0.6,0-1,0.4-1,1s0.4,1,1,1h1.6l-4.3,4.3c-0.4,0.4-0.4,1,0,1.4
		c0.2,0.2,0.5,0.3,0.7,0.3s0.5-0.1,0.7-0.3L19,6.4V8c0,0.6,0.4,1,1,1s1-0.4,1-1V4C21,3.9,21,3.7,20.9,3.6z"/>
	<path d="M9.3,13.3L5,17.6V16c0-0.6-0.4-1-1-1s-1,0.4-1,1v4c0,0.1,0,0.3,0.1,0.4c0.1,0.2,0.3,0.4,0.5,0.5C3.7,21,3.9,21,4,21h4
		c0.6,0,1-0.4,1-1s-0.4-1-1-1H6.4l4.3-4.3c0.4-0.4,0.4-1,0-1.4S9.7,12.9,9.3,13.3z"/>
	<path d="M20,15c-0.6,0-1,0.4-1,1v1.6l-4.3-4.3c-0.4-0.4-1-0.4-1.4,0s-0.4,1,0,1.4l4.3,4.3H16c-0.6,0-1,0.4-1,1s0.4,1,1,1h4
		c0.1,0,0.3,0,0.4-0.1c0.2-0.1,0.4-0.3,0.5-0.5C21,20.3,21,20.1,21,20v-4C21,15.4,20.6,15,20,15z"/>
	<path d="M6.4,5H8c0.6,0,1-0.4,1-1S8.6,3,8,3H4C3.9,3,3.7,3,3.6,3.1C3.4,3.2,3.2,3.4,3.1,3.6C3,3.7,3,3.9,3,4v4c0,0.6,0.4,1,1,1
		s1-0.4,1-1V6.4l4.3,4.3C9.5,10.9,9.7,11,10,11s0.5-0.1,0.7-0.3c0.4-0.4,0.4-1,0-1.4L6.4,5z"/>
</g>
</svg>
