<svg t="1692099016420" class="icon" viewBox="0 0 1024 1024" version="1.1" xmlns="http://www.w3.org/2000/svg" p-id="2371" width="128" height="128"><path d="M934.4 247.466667c-8.533333-21.333333-25.6-38.4-42.666667-46.933334-21.333333-8.533333-42.666667-8.533333-64-4.266666-119.466667 42.666667-234.666667 64-354.133333 59.733333-25.6 0-42.666667 17.066667-46.933333 38.4 0 25.6 17.066667 42.666667 38.4 46.933333 128 8.533333 260.266667-12.8 388.266666-64V725.333333c0 25.6 17.066667 42.666667 42.666667 42.666667s42.666667-17.066667 42.666667-42.666667V277.333333c0-12.8 0-21.333333-4.266667-29.866666zM157.866667 98.133333c-17.066667-17.066667-42.666667-17.066667-59.733334 0s-17.066667 42.666667 0 59.733334l38.4 38.4c-29.866667 12.8-51.2 42.666667-51.2 81.066666v469.333334c0 8.533333 0 21.333333 4.266667 29.866666 8.533333 21.333333 25.6 38.4 42.666667 46.933334 12.8 4.266667 21.333333 8.533333 34.133333 8.533333 8.533333 0 21.333333 0 29.866667-4.266667 179.2-68.266667 358.4-76.8 537.6-25.6l128 128c8.533333 8.533333 21.333333 12.8 29.866666 12.8s21.333333-4.266667 29.866667-12.8c17.066667-17.066667 17.066667-42.666667 0-59.733333L157.866667 98.133333zM170.666667 746.666667v-469.333334c21.333333 8.533333 46.933333 12.8 68.266666 21.333334l392.533334 392.533333c-153.6-21.333333-307.2-4.266667-460.8 55.466667z" p-id="2372"></path></svg>