<svg t="1692098098465" class="icon" viewBox="0 0 1024 1024" version="1.1" xmlns="http://www.w3.org/2000/svg" p-id="1807" width="128" height="128"><path d="M934.4 247.466667c-17.066667-42.666667-64-68.266667-110.933333-51.2-209.066667 76.8-413.866667 76.8-622.933334 0-8.533333-4.266667-21.333333-4.266667-29.866666-4.266667-46.933333 0-85.333333 38.4-85.333334 85.333333v469.333334c0 21.333333 8.533333 42.666667 25.6 59.733333 17.066667 17.066667 38.4 25.6 59.733334 25.6 8.533333 0 21.333333 0 29.866666-4.266667 209.066667-76.8 413.866667-76.8 622.933334 0 8.533333 4.266667 17.066667 4.266667 29.866666 4.266667 46.933333 0 85.333333-38.4 85.333334-85.333333v-469.333334c0-12.8 0-21.333333-4.266667-29.866666zM512 682.666667c-115.2 0-226.133333 21.333333-341.333333 64v-469.333334c226.133333 85.333333 456.533333 85.333333 682.666666 0v469.333334c-110.933333-42.666667-226.133333-64-341.333333-64z" p-id="1808"></path></svg>