<svg t="1692098208668" class="icon" viewBox="0 0 1024 1024" version="1.1" xmlns="http://www.w3.org/2000/svg" p-id="2089" width="128" height="128"><path d="M384 170.666667c-25.6 0-42.666667 17.066667-42.666667 42.666666v68.266667L157.866667 98.133333c-17.066667-17.066667-42.666667-17.066667-59.733334 0s-17.066667 42.666667 0 59.733334L281.6 341.333333H213.333333c-25.6 0-42.666667 17.066667-42.666666 42.666667s17.066667 42.666667 42.666666 42.666667h170.666667c4.266667 0 12.8 0 17.066667-4.266667 8.533333-4.266667 17.066667-12.8 21.333333-21.333333 4.266667-4.266667 4.266667-12.8 4.266667-17.066667V213.333333c0-25.6-17.066667-42.666667-42.666667-42.666666zM401.066667 601.6c-4.266667-4.266667-12.8-4.266667-17.066667-4.266667H213.333333c-25.6 0-42.666667 17.066667-42.666666 42.666667s17.066667 42.666667 42.666666 42.666667h68.266667l-183.466667 183.466666c-17.066667 17.066667-17.066667 42.666667 0 59.733334 8.533333 8.533333 17.066667 12.8 29.866667 12.8s21.333333-4.266667 29.866667-12.8L341.333333 742.4V810.666667c0 25.6 17.066667 42.666667 42.666667 42.666666s42.666667-17.066667 42.666667-42.666666v-170.666667c0-4.266667 0-12.8-4.266667-17.066667-4.266667-8.533333-12.8-17.066667-21.333333-21.333333zM622.933333 422.4c4.266667 4.266667 12.8 4.266667 17.066667 4.266667h170.666667c25.6 0 42.666667-17.066667 42.666666-42.666667s-17.066667-42.666667-42.666666-42.666667h-68.266667l183.466667-183.466666c17.066667-17.066667 17.066667-42.666667 0-59.733334s-42.666667-17.066667-59.733334 0L682.666667 281.6V213.333333c0-25.6-17.066667-42.666667-42.666667-42.666666s-42.666667 17.066667-42.666667 42.666666v170.666667c0 4.266667 0 12.8 4.266667 17.066667 4.266667 8.533333 12.8 17.066667 21.333333 21.333333zM742.4 682.666667H810.666667c25.6 0 42.666667-17.066667 42.666666-42.666667s-17.066667-42.666667-42.666666-42.666667h-170.666667c-4.266667 0-12.8 0-17.066667 4.266667-8.533333 4.266667-17.066667 12.8-21.333333 21.333333-4.266667 4.266667-4.266667 12.8-4.266667 17.066667v170.666667c0 25.6 17.066667 42.666667 42.666667 42.666666s42.666667-17.066667 42.666667-42.666666v-68.266667l183.466666 183.466667c8.533333 8.533333 21.333333 12.8 29.866667 12.8s21.333333-4.266667 29.866667-12.8c17.066667-17.066667 17.066667-42.666667 0-59.733334L742.4 682.666667z" p-id="2090"></path></svg>