<svg t="1692099172088" class="icon" viewBox="0 0 1024 1024" version="1.1" xmlns="http://www.w3.org/2000/svg" p-id="3364" width="128" height="128"><path d="M341.333333 213.333333c0 25.6 17.066667 42.666667 42.666667 42.666667s42.666667-17.066667 42.666667-42.666667h298.666666c25.6 0 42.666667 17.066667 42.666667 42.666667v384c0 25.6 17.066667 42.666667 42.666667 42.666667s42.666667-17.066667 42.666666-42.666667V256c0-72.533333-55.466667-128-128-128H341.333333c-25.6 0-42.666667 17.066667-42.666666 42.666667s17.066667 42.666667 42.666666 42.666666z" p-id="3365"></path><path d="M554.666667 298.666667c-25.6 0-42.666667 17.066667-42.666667 42.666666s17.066667 42.666667 42.666667 42.666667h85.333333c25.6 0 42.666667-17.066667 42.666667-42.666667s-17.066667-42.666667-42.666667-42.666666h-85.333333zM925.866667 866.133333l-512-512-170.666667-170.666666-85.333333-85.333334c-17.066667-17.066667-42.666667-17.066667-59.733334 0s-17.066667 42.666667 0 59.733334L170.666667 230.4V810.666667c0 46.933333 38.4 85.333333 85.333333 85.333333h85.333333v42.666667c0 25.6 17.066667 42.666667 42.666667 42.666666s42.666667-17.066667 42.666667-42.666666v-42.666667h298.666666c29.866667 0 59.733333-12.8 81.066667-29.866667l59.733333 59.733334c8.533333 8.533333 21.333333 12.8 29.866667 12.8s21.333333-4.266667 29.866667-12.8c17.066667-17.066667 17.066667-42.666667 0-59.733334zM256 810.666667V315.733333l85.333333 85.333334V810.666667H256z m469.333333 0h-298.666666v-324.266667l320 320c-8.533333 4.266667-12.8 4.266667-21.333334 4.266667z" p-id="3366"></path></svg>