<?xml version="1.0" encoding="utf-8"?>
<!-- Generator: Adobe Illustrator 18.0.0, SVG Export Plug-In . SVG Version: 6.00 Build 0)  -->
<!DOCTYPE svg PUBLIC "-//W3C//DTD SVG 1.1//EN" "http://www.w3.org/Graphics/SVG/1.1/DTD/svg11.dtd">
<svg version="1.1" id="Layer_1" xmlns="http://www.w3.org/2000/svg" xmlns:xlink="http://www.w3.org/1999/xlink" x="0px" y="0px"
	 viewBox="0 0 24 24" enable-background="new 0 0 24 24" xml:space="preserve">
<g>
	<path d="M17,3H6C4.9,3,4,3.9,4,5v14c0,1.1,0.9,2,2,2h2v1c0,0.6,0.4,1,1,1s1-0.4,1-1v-1h7c1.7,0,3-1.3,3-3V6C20,4.3,18.7,3,17,3z
		 M8,19H6L6,5h0h2V19z M18,18c0,0.6-0.4,1-1,1h-7V5h7c0.6,0,1,0.4,1,1V18z"/>
	<path d="M15,7h-2c-0.6,0-1,0.4-1,1s0.4,1,1,1h2c0.6,0,1-0.4,1-1S15.6,7,15,7z"/>
	<path d="M15,11h-2c-0.6,0-1,0.4-1,1s0.4,1,1,1h2c0.6,0,1-0.4,1-1S15.6,11,15,11z"/>
</g>
</svg>
