<?xml version="1.0" encoding="utf-8"?>
<!-- Generator: Adobe Illustrator 18.0.0, SVG Export Plug-In . SVG Version: 6.00 Build 0)  -->
<!DOCTYPE svg PUBLIC "-//W3C//DTD SVG 1.1//EN" "http://www.w3.org/Graphics/SVG/1.1/DTD/svg11.dtd">
<svg version="1.1" id="Layer_1" xmlns="http://www.w3.org/2000/svg" xmlns:xlink="http://www.w3.org/1999/xlink" x="0px" y="0px"
	 viewBox="0 0 24 24" enable-background="new 0 0 24 24" xml:space="preserve">
<g>
	<path d="M8,5c0,0.6,0.4,1,1,1s1-0.4,1-1h7c0.6,0,1,0.4,1,1v9c0,0.6,0.4,1,1,1s1-0.4,1-1V6c0-1.7-1.3-3-3-3H8C7.4,3,7,3.4,7,4
		S7.4,5,8,5z"/>
	<path d="M13,7c-0.6,0-1,0.4-1,1s0.4,1,1,1h2c0.6,0,1-0.4,1-1s-0.4-1-1-1H13z"/>
	<path d="M21.7,20.3l-12-12c0,0,0,0,0,0l-4-4c0,0,0,0,0,0l-2-2c-0.4-0.4-1-0.4-1.4,0s-0.4,1,0,1.4L4,5.4V19c0,1.1,0.9,2,2,2h2v1
		c0,0.6,0.4,1,1,1s1-0.4,1-1v-1h7c0.7,0,1.4-0.3,1.9-0.7l1.4,1.4c0.2,0.2,0.5,0.3,0.7,0.3s0.5-0.1,0.7-0.3
		C22.1,21.3,22.1,20.7,21.7,20.3z M6,19V7.4l2,2V19H6z M17,19h-7v-7.6l7.5,7.5C17.3,19,17.2,19,17,19z"/>
</g>
</svg>
