<svg t="1692099162137" class="icon" viewBox="0 0 1024 1024" version="1.1" xmlns="http://www.w3.org/2000/svg" p-id="3222" width="128" height="128"><path d="M725.333333 128H256c-46.933333 0-85.333333 38.4-85.333333 85.333333v597.333334c0 46.933333 38.4 85.333333 85.333333 85.333333h85.333333v42.666667c0 25.6 17.066667 42.666667 42.666667 42.666666s42.666667-17.066667 42.666667-42.666666v-42.666667h298.666666c72.533333 0 128-55.466667 128-128V256c0-72.533333-55.466667-128-128-128zM341.333333 810.666667H256V213.333333h85.333333v597.333334z m426.666667-42.666667c0 25.6-17.066667 42.666667-42.666667 42.666667h-298.666666V213.333333h298.666666c25.6 0 42.666667 17.066667 42.666667 42.666667v512z" p-id="3223"></path><path d="M640 298.666667h-85.333333c-25.6 0-42.666667 17.066667-42.666667 42.666666s17.066667 42.666667 42.666667 42.666667h85.333333c25.6 0 42.666667-17.066667 42.666667-42.666667s-17.066667-42.666667-42.666667-42.666666zM640 469.333333h-85.333333c-25.6 0-42.666667 17.066667-42.666667 42.666667s17.066667 42.666667 42.666667 42.666667h85.333333c25.6 0 42.666667-17.066667 42.666667-42.666667s-17.066667-42.666667-42.666667-42.666667z" p-id="3224"></path></svg>