<?xml version="1.0" encoding="utf-8"?>
<!-- Generator: Adobe Illustrator 18.0.0, SVG Export Plug-In . SVG Version: 6.00 Build 0)  -->
<!DOCTYPE svg PUBLIC "-//W3C//DTD SVG 1.1//EN" "http://www.w3.org/Graphics/SVG/1.1/DTD/svg11.dtd">
<svg version="1.1" id="Layer_1" xmlns="http://www.w3.org/2000/svg" xmlns:xlink="http://www.w3.org/1999/xlink" x="0px" y="0px"
	 viewBox="0 0 24 24" enable-background="new 0 0 24 24" xml:space="preserve">
<g>
	<path d="M8.5,4.9C9.6,4.3,10.8,4,12,4c4.4,0,8,3.1,8,7c0,0.8-0.3,1.5-1,2.1c-0.3,0.2-0.6,0.4-0.9,0.6c-0.5,0.2-0.7,0.8-0.5,1.3
		c0.2,0.4,0.5,0.6,0.9,0.6c0.1,0,0.3,0,0.4-0.1c0.5-0.2,1-0.5,1.4-0.9c1.1-0.9,1.7-2.2,1.7-3.6c0-5-4.5-9-10-9c-1.5,0-3,0.4-4.5,1.1
		C7.1,3.4,6.9,4,7.1,4.5C7.4,4.9,8,5.1,8.5,4.9z"/>
	<circle cx="12.5" cy="7.5" r="2"/>
	<circle cx="16.5" cy="10.5" r="2"/>
	<path d="M15.7,14.3C15.7,14.3,15.7,14.3,15.7,14.3l-12-12c-0.4-0.4-1-0.4-1.4,0s-0.4,1,0,1.4l2,2C2.8,7.5,2,9.7,2,12
		c0,5.5,4.5,10,9.9,10c0,0,0,0,0,0c0.1,0,0.1,0,0.2,0c0.6,0,1.3-0.3,1.7-0.7c0.9-0.9,0.8-2.4-0.1-3.2c-0.1-0.1-0.1-0.1-0.2-0.1
		C13.2,17.7,13,17.4,13,17c0-0.5,0.5-1,1-1c0,0,0,0,0,0h0.6l5.7,5.7c0.2,0.2,0.5,0.3,0.7,0.3s0.5-0.1,0.7-0.3c0.4-0.4,0.4-1,0-1.4
		L15.7,14.3z M12.4,19.5c0.1,0.1,0.1,0.3,0,0.4C12.3,20,12.2,20,12,20c-4.4,0-8-3.6-8-8c0-1.8,0.6-3.5,1.7-4.9l1.7,1.7
		c-0.5,0.4-0.9,1-0.9,1.7c0,1.1,0.9,2,2,2c0.7,0,1.3-0.4,1.7-0.9l2.7,2.7C11.8,14.7,11,15.7,11,17C11,18,11.5,19,12.4,19.5z"/>
</g>
</svg>
