<svg t="1692099192185" class="icon" viewBox="0 0 1024 1024" version="1.1" xmlns="http://www.w3.org/2000/svg" p-id="3650" width="128" height="128"><path d="M512 85.333333C277.333333 85.333333 85.333333 277.333333 85.333333 512s192 426.666667 422.4 426.666667h8.533334c25.6 0 55.466667-12.8 72.533333-29.866667 38.4-38.4 34.133333-102.4-4.266667-136.533333-4.266667-4.266667-4.266667-4.266667-8.533333-4.266667-12.8-12.8-21.333333-25.6-21.333333-42.666667 0-21.333333 21.333333-42.666667 42.666666-42.666666h106.666667c59.733333 0 119.466667-21.333333 162.133333-59.733334A196.266667 196.266667 0 0 0 938.666667 469.333333c0-213.333333-192-384-426.666667-384z m298.666667 473.6c-29.866667 25.6-68.266667 38.4-106.666667 38.4H597.333333c-68.266667 0-128 55.466667-128 128 0 46.933333 21.333333 85.333333 59.733334 110.933334 4.266667 4.266667 4.266667 12.8 0 17.066666H512c-187.733333 0-341.333333-153.6-341.333333-341.333333s153.6-341.333333 341.333333-341.333333 341.333333 132.266667 341.333333 298.666666c0 34.133333-12.8 64-42.666666 89.6z" p-id="3651"></path><path d="M362.666667 448m-85.333334 0a85.333333 85.333333 0 1 0 170.666667 0 85.333333 85.333333 0 1 0-170.666667 0Z" p-id="3652"></path><path d="M533.333333 320m-85.333333 0a85.333333 85.333333 0 1 0 170.666667 0 85.333333 85.333333 0 1 0-170.666667 0Z" p-id="3653"></path><path d="M704 448m-85.333333 0a85.333333 85.333333 0 1 0 170.666666 0 85.333333 85.333333 0 1 0-170.666666 0Z" p-id="3654"></path></svg>