<svg t="1692099184401" class="icon" viewBox="0 0 1024 1024" version="1.1" xmlns="http://www.w3.org/2000/svg" p-id="3506" width="128" height="128"><path d="M362.666667 209.066667C409.6 183.466667 460.8 170.666667 512 170.666667c187.733333 0 341.333333 132.266667 341.333333 298.666666 0 34.133333-12.8 64-42.666666 89.6l-38.4 25.6c-21.333333 8.533333-29.866667 34.133333-21.333334 55.466667 8.533333 17.066667 21.333333 25.6 38.4 25.6 4.266667 0 12.8 0 17.066667-4.266667 21.333333-8.533333 42.666667-21.333333 59.733333-38.4A196.266667 196.266667 0 0 0 938.666667 469.333333c0-213.333333-192-384-426.666667-384-64 0-128 17.066667-192 46.933334-17.066667 12.8-25.6 38.4-17.066667 59.733333 12.8 17.066667 38.4 25.6 59.733334 17.066667z" p-id="3507"></path><path d="M533.333333 320m-85.333333 0a85.333333 85.333333 0 1 0 170.666667 0 85.333333 85.333333 0 1 0-170.666667 0Z" p-id="3508"></path><path d="M704 448m-85.333333 0a85.333333 85.333333 0 1 0 170.666666 0 85.333333 85.333333 0 1 0-170.666666 0Z" p-id="3509"></path><path d="M669.866667 610.133333l-512-512c-17.066667-17.066667-42.666667-17.066667-59.733334 0s-17.066667 42.666667 0 59.733334l85.333334 85.333333C119.466667 320 85.333333 413.866667 85.333333 512c0 234.666667 192 426.666667 422.4 426.666667h8.533334c25.6 0 55.466667-12.8 72.533333-29.866667 38.4-38.4 34.133333-102.4-4.266667-136.533333-4.266667-4.266667-4.266667-4.266667-8.533333-4.266667-12.8-12.8-21.333333-25.6-21.333333-42.666667 0-21.333333 21.333333-42.666667 42.666666-42.666666h25.6l243.2 243.2c8.533333 8.533333 21.333333 12.8 29.866667 12.8s21.333333-4.266667 29.866667-12.8c17.066667-17.066667 17.066667-42.666667 0-59.733334l-256-256z m-140.8 221.866667c4.266667 4.266667 4.266667 12.8 0 17.066667-4.266667 4.266667-8.533333 4.266667-17.066667 4.266666-187.733333 0-341.333333-153.6-341.333333-341.333333 0-76.8 25.6-149.333333 72.533333-209.066667l72.533333 72.533334c-21.333333 17.066667-38.4 42.666667-38.4 72.533333 0 46.933333 38.4 85.333333 85.333334 85.333333 29.866667 0 55.466667-17.066667 72.533333-38.4l115.2 115.2c-46.933333 17.066667-81.066667 59.733333-81.066667 115.2 0 42.666667 21.333333 85.333333 59.733334 106.666667z" p-id="3510"></path></svg>