<?xml version="1.0" encoding="utf-8"?>
<!-- Generator: Adobe Illustrator 18.0.0, SVG Export Plug-In . SVG Version: 6.00 Build 0)  -->
<!DOCTYPE svg PUBLIC "-//W3C//DTD SVG 1.1//EN" "http://www.w3.org/Graphics/SVG/1.1/DTD/svg11.dtd">
<svg version="1.1" id="Layer_1" xmlns="http://www.w3.org/2000/svg" xmlns:xlink="http://www.w3.org/1999/xlink" x="0px" y="0px"
	 viewBox="0 0 24 24" enable-background="new 0 0 24 24" xml:space="preserve">
<g>
	<path d="M12,2C6.5,2,2,6.5,2,12c0,5.5,4.5,10,9.9,10c0,0,0,0,0,0c0.1,0,0.1,0,0.2,0c0.6,0,1.3-0.3,1.7-0.7c0.9-0.9,0.8-2.4-0.1-3.2
		c-0.1-0.1-0.1-0.1-0.2-0.1C13.2,17.7,13,17.4,13,17c0-0.5,0.5-1,1-1c0,0,0,0,0,0h2.5c1.4,0,2.8-0.5,3.8-1.4
		c1.1-0.9,1.7-2.2,1.7-3.6C22,6,17.5,2,12,2z M19,13.1c-0.7,0.6-1.6,0.9-2.5,0.9H14c-1.6,0-3,1.3-3,3c0,1.1,0.5,2,1.4,2.6
		c0.1,0.1,0.1,0.3,0,0.4C12.3,20,12.2,20,12.1,20L12,20c-4.4,0-8-3.6-8-8s3.6-8,8-8s8,3.1,8,7C20,11.8,19.7,12.5,19,13.1z"/>
	<circle cx="8.5" cy="10.5" r="2"/>
	<circle cx="12.5" cy="7.5" r="2"/>
	<circle cx="16.5" cy="10.5" r="2"/>
</g>
</svg>
