<svg t="1692099212974" class="icon" viewBox="0 0 1024 1024" version="1.1" xmlns="http://www.w3.org/2000/svg" p-id="3794" width="128" height="128"><path d="M849.066667 401.066667c-4.266667 0-4.266667 0-8.533334-4.266667-12.8-8.533333-17.066667-29.866667-8.533333-42.666667 21.333333-38.4 21.333333-81.066667 0-119.466666-29.866667-55.466667-106.666667-76.8-162.133333-42.666667-4.266667 0-4.266667 4.266667-8.533334 4.266667-17.066667 4.266667-34.133333-8.533333-38.4-21.333334C610.133333 119.466667 567.466667 85.333333 512 85.333333s-98.133333 34.133333-110.933333 89.6c-8.533333 21.333333-34.133333 25.6-46.933334 17.066667-55.466667-34.133333-132.266667-12.8-162.133333 42.666667-21.333333 38.4-21.333333 81.066667 0 119.466666 0 4.266667 4.266667 4.266667 4.266667 8.533334 4.266667 17.066667-4.266667 34.133333-21.333334 38.4C119.466667 413.866667 85.333333 456.533333 85.333333 512s34.133333 98.133333 89.6 110.933333c4.266667 0 4.266667 0 8.533334 4.266667 8.533333 4.266667 12.8 12.8 12.8 17.066667 0 8.533333 0 17.066667-4.266667 21.333333-21.333333 42.666667-21.333333 85.333333 0 123.733333 29.866667 55.466667 106.666667 76.8 162.133333 42.666667 4.266667 0 4.266667-4.266667 8.533334-4.266667 17.066667-4.266667 34.133333 8.533333 38.4 21.333334 12.8 55.466667 55.466667 89.6 110.933333 89.6s98.133333-34.133333 110.933333-89.6c0-4.266667 0-4.266667 4.266667-8.533334 8.533333-12.8 29.866667-17.066667 42.666667-8.533333 55.466667 34.133333 132.266667 12.8 162.133333-42.666667 21.333333-38.4 21.333333-81.066667-4.266667-115.2 0-4.266667-4.266667-4.266667-4.266666-8.533333-4.266667-17.066667 4.266667-34.133333 21.333333-38.4 51.2-12.8 89.6-59.733333 89.6-110.933333s-29.866667-102.4-85.333333-115.2z m-21.333334 140.8c-64 17.066667-102.4 76.8-85.333333 140.8 4.266667 12.8 8.533333 21.333333 12.8 34.133333 8.533333 12.8 4.266667 25.6 0 29.866667-8.533333 17.066667-25.6 21.333333-42.666667 12.8-17.066667-12.8-38.4-17.066667-59.733333-17.066667-42.666667 0-76.8 21.333333-98.133333 55.466667-4.266667 8.533333-12.8 21.333333-12.8 34.133333-4.266667 21.333333-25.6 21.333333-29.866667 21.333333s-25.6 0-29.866667-25.6c-12.8-51.2-59.733333-89.6-110.933333-89.6-8.533333 0-17.066667 0-25.6 4.266667-12.8 4.266667-21.333333 8.533333-34.133333 12.8-17.066667 8.533333-34.133333 4.266667-42.666667-12.8-4.266667-8.533333-8.533333-17.066667 0-29.866667 17.066667-25.6 21.333333-59.733333 12.8-89.6s-29.866667-51.2-55.466667-68.266666c-8.533333-4.266667-21.333333-12.8-34.133333-12.8-21.333333-4.266667-21.333333-25.6-21.333333-29.866667s0-25.6 25.6-29.866667c59.733333-17.066667 98.133333-76.8 85.333333-140.8-4.266667-12.8-8.533333-21.333333-17.066667-34.133333-8.533333-12.8-4.266667-25.6 0-29.866667 8.533333-17.066667 25.6-21.333333 42.666667-12.8 17.066667 12.8 38.4 17.066667 59.733333 17.066667 55.466667 0 98.133333-38.4 110.933334-89.6 8.533333-21.333333 29.866667-21.333333 34.133333-21.333333s25.6 0 29.866667 25.6C554.666667 256 618.666667 298.666667 682.666667 281.6c12.8-4.266667 21.333333-8.533333 34.133333-12.8 17.066667-8.533333 34.133333-4.266667 42.666667 12.8 4.266667 8.533333 8.533333 17.066667 0 29.866667-34.133333 55.466667-17.066667 128 38.4 157.866666 8.533333 4.266667 21.333333 12.8 34.133333 12.8 21.333333 4.266667 21.333333 25.6 21.333333 29.866667s0 25.6-25.6 29.866667z" p-id="3795"></path><path d="M512 341.333333c-93.866667 0-170.666667 76.8-170.666667 170.666667s76.8 170.666667 170.666667 170.666667 170.666667-76.8 170.666667-170.666667-76.8-170.666667-170.666667-170.666667z m0 256c-46.933333 0-85.333333-38.4-85.333333-85.333333s38.4-85.333333 85.333333-85.333333 85.333333 38.4 85.333333 85.333333-38.4 85.333333-85.333333 85.333333z" p-id="3796"></path></svg>