<?xml version="1.0" encoding="utf-8"?>
<!-- Generator: Adobe Illustrator 18.0.0, SVG Export Plug-In . SVG Version: 6.00 Build 0)  -->
<!DOCTYPE svg PUBLIC "-//W3C//DTD SVG 1.1//EN" "http://www.w3.org/Graphics/SVG/1.1/DTD/svg11.dtd">
<svg version="1.1" id="Layer_1" xmlns="http://www.w3.org/2000/svg" xmlns:xlink="http://www.w3.org/1999/xlink" x="0px" y="0px"
	 viewBox="0 0 24 24" enable-background="new 0 0 24 24" xml:space="preserve">
<g>
	<path d="M19.9,9.4c-0.1,0-0.1,0-0.2-0.1c-0.3-0.2-0.4-0.7-0.2-1C20,7.4,20,6.4,19.5,5.5c-0.7-1.3-2.5-1.8-3.8-1
		c-0.1,0-0.1,0.1-0.2,0.1c-0.4,0.1-0.8-0.2-0.9-0.5C14.3,2.8,13.3,2,12,2S9.7,2.8,9.4,4.1C9.2,4.6,8.6,4.7,8.3,4.5
		C7,3.7,5.2,4.2,4.5,5.5C4,6.4,4,7.4,4.5,8.3c0,0.1,0.1,0.1,0.1,0.2c0.1,0.4-0.1,0.8-0.5,0.9C2.8,9.7,2,10.7,2,12s0.8,2.3,2.1,2.6
		c0.1,0,0.1,0,0.2,0.1c0.2,0.1,0.3,0.3,0.3,0.4c0,0.2,0,0.4-0.1,0.5C4,16.6,4,17.6,4.5,18.5c0.7,1.3,2.5,1.8,3.8,1
		c0.1,0,0.1-0.1,0.2-0.1c0.4-0.1,0.8,0.2,0.9,0.5C9.7,21.2,10.7,22,12,22s2.3-0.8,2.6-2.1c0-0.1,0-0.1,0.1-0.2
		c0.2-0.3,0.7-0.4,1-0.2c1.3,0.8,3.1,0.3,3.8-1c0.5-0.9,0.5-1.9-0.1-2.7c0-0.1-0.1-0.1-0.1-0.2c-0.1-0.4,0.1-0.8,0.5-0.9
		c1.2-0.3,2.1-1.4,2.1-2.6S21.2,9.7,19.9,9.4z M19.4,12.7c-1.5,0.4-2.4,1.8-2,3.3c0.1,0.3,0.2,0.5,0.3,0.8c0.2,0.3,0.1,0.6,0,0.7
		c-0.2,0.4-0.6,0.5-1,0.3c-0.4-0.3-0.9-0.4-1.4-0.4c-1,0-1.8,0.5-2.3,1.3c-0.1,0.2-0.3,0.5-0.3,0.8C12.6,20,12.1,20,12,20
		s-0.6,0-0.7-0.6c-0.3-1.2-1.4-2.1-2.6-2.1c-0.2,0-0.4,0-0.6,0.1c-0.3,0.1-0.5,0.2-0.8,0.3c-0.4,0.2-0.8,0.1-1-0.3
		c-0.1-0.2-0.2-0.4,0-0.7c0.4-0.6,0.5-1.4,0.3-2.1S5.9,13.4,5.3,13c-0.2-0.1-0.5-0.3-0.8-0.3C4,12.6,4,12.1,4,12s0-0.6,0.6-0.7
		C6,10.9,6.9,9.5,6.6,8C6.5,7.7,6.4,7.5,6.2,7.2c-0.2-0.3-0.1-0.6,0-0.7c0.2-0.4,0.6-0.5,1-0.3c0.4,0.3,0.9,0.4,1.4,0.4
		c1.3,0,2.3-0.9,2.6-2.1C11.4,4,11.9,4,12,4s0.6,0,0.7,0.6c0.3,1.4,1.8,2.4,3.3,2c0.3-0.1,0.5-0.2,0.8-0.3c0.4-0.2,0.8-0.1,1,0.3
		c0.1,0.2,0.2,0.4,0,0.7c-0.8,1.3-0.4,3,0.9,3.7c0.2,0.1,0.5,0.3,0.8,0.3C20,11.4,20,11.9,20,12S20,12.6,19.4,12.7z"/>
	<path d="M12,8c-2.2,0-4,1.8-4,4c0,2.2,1.8,4,4,4c2.2,0,4-1.8,4-4C16,9.8,14.2,8,12,8z M12,14c-1.1,0-2-0.9-2-2c0-1.1,0.9-2,2-2
		c1.1,0,2,0.9,2,2C14,13.1,13.1,14,12,14z"/>
</g>
</svg>
