<svg t="1692099245486" class="icon" viewBox="0 0 1024 1024" version="1.1" xmlns="http://www.w3.org/2000/svg" p-id="4218" width="128" height="128"><path d="M763.733333 477.866667c-8.533333-68.266667-46.933333-128-98.133333-170.666667-17.066667-12.8-46.933333-8.533333-59.733333 8.533333-12.8 17.066667-8.533333 46.933333 8.533333 59.733334 38.4 25.6 59.733333 68.266667 68.266667 110.933333 8.533333 46.933333-4.266667 89.6-34.133334 128-8.533333 12.8-21.333333 25.6-34.133333 34.133333-17.066667 12.8-21.333333 42.666667-8.533333 59.733334 8.533333 12.8 21.333333 17.066667 34.133333 17.066666 8.533333 0 17.066667-4.266667 25.6-8.533333 21.333333-12.8 38.4-29.866667 51.2-51.2 42.666667-55.466667 59.733333-123.733333 46.933333-187.733333z" p-id="4219"></path><path d="M780.8 179.2c-17.066667-12.8-46.933333-12.8-59.733333 4.266667-12.8 17.066667-12.8 46.933333 4.266666 59.733333 145.066667 119.466667 170.666667 332.8 51.2 482.133333L725.333333 776.533333c-17.066667 12.8-21.333333 42.666667-4.266666 59.733334 8.533333 8.533333 21.333333 17.066667 34.133333 17.066666 8.533333 0 17.066667-4.266667 25.6-8.533333 21.333333-17.066667 46.933333-38.4 64-64 149.333333-183.466667 119.466667-452.266667-64-601.6zM512 217.6c4.266667-29.866667-12.8-64-42.666667-76.8-34.133333-17.066667-81.066667-4.266667-102.4 29.866667L234.666667 341.333333H170.666667c-46.933333 0-85.333333 38.4-85.333334 85.333334v170.666666c0 46.933333 38.4 85.333333 85.333334 85.333334h64l136.533333 174.933333c12.8 21.333333 38.4 38.4 64 38.4h12.8c38.4-8.533333 68.266667-42.666667 64-85.333333V217.6z m-85.333333 571.733333l-136.533334-174.933333c-8.533333-12.8-21.333333-17.066667-34.133333-17.066667H170.666667v-170.666666h85.333333c12.8 0 25.6-4.266667 34.133333-17.066667L426.666667 234.666667v554.666666z" p-id="4220"></path></svg>