<?xml version="1.0" encoding="utf-8"?>
<!-- Generator: Adobe Illustrator 18.0.0, SVG Export Plug-In . SVG Version: 6.00 Build 0)  -->
<!DOCTYPE svg PUBLIC "-//W3C//DTD SVG 1.1//EN" "http://www.w3.org/Graphics/SVG/1.1/DTD/svg11.dtd">
<svg version="1.1" id="Layer_1" xmlns="http://www.w3.org/2000/svg" xmlns:xlink="http://www.w3.org/1999/xlink" x="0px" y="0px"
	 viewBox="0 0 24 24" enable-background="new 0 0 24 24" xml:space="preserve">
<g>
	<path d="M17.9,11.2c-0.2-1.6-1.1-3-2.3-4c-0.4-0.3-1.1-0.2-1.4,0.2c-0.3,0.4-0.2,1.1,0.2,1.4c0.9,0.6,1.4,1.6,1.6,2.6
		c0.2,1.1-0.1,2.1-0.8,3c-0.2,0.3-0.5,0.6-0.8,0.8c-0.4,0.3-0.5,1-0.2,1.4c0.2,0.3,0.5,0.4,0.8,0.4c0.2,0,0.4-0.1,0.6-0.2
		c0.5-0.3,0.9-0.7,1.2-1.2C17.8,14.3,18.2,12.7,17.9,11.2z"/>
	<path d="M18.3,4.2c-0.4-0.3-1.1-0.3-1.4,0.1c-0.3,0.4-0.3,1.1,0.1,1.4c3.4,2.8,4,7.8,1.2,11.3c-0.4,0.4-0.8,0.8-1.2,1.2
		c-0.4,0.3-0.5,1-0.1,1.4c0.2,0.2,0.5,0.4,0.8,0.4c0.2,0,0.4-0.1,0.6-0.2c0.5-0.4,1.1-0.9,1.5-1.5C23.3,14,22.6,7.7,18.3,4.2z"/>
	<path d="M12,5.1c0.1-0.7-0.3-1.5-1-1.8c-0.8-0.4-1.9-0.1-2.4,0.7L5.5,8H4c-1.1,0-2,0.9-2,2v4c0,1.1,0.9,2,2,2h1.5l3.2,4.1
		c0.3,0.5,0.9,0.9,1.5,0.9c0.1,0,0.2,0,0.3,0c0.9-0.2,1.6-1,1.5-2V5.1z M10,18.5l-3.2-4.1C6.6,14.1,6.3,14,6,14H4v-4h2
		c0.3,0,0.6-0.1,0.8-0.4L10,5.5V18.5z"/>
</g>
</svg>
