<svg t="1692099237159" class="icon" viewBox="0 0 1024 1024" version="1.1" xmlns="http://www.w3.org/2000/svg" p-id="4077" width="128" height="128"><path d="M512 217.6c4.266667-29.866667-12.8-64-42.666667-76.8-34.133333-17.066667-81.066667-4.266667-102.4 29.866667L234.666667 341.333333H170.666667c-46.933333 0-85.333333 38.4-85.333334 85.333334v170.666666c0 46.933333 38.4 85.333333 85.333334 85.333334h64l136.533333 174.933333c12.8 21.333333 38.4 38.4 64 38.4h12.8c38.4-8.533333 68.266667-42.666667 64-85.333333V217.6z m-85.333333 571.733333l-136.533334-174.933333c-8.533333-12.8-21.333333-17.066667-34.133333-17.066667H170.666667v-170.666666h85.333333c12.8 0 25.6-4.266667 34.133333-17.066667L426.666667 234.666667v554.666666zM827.733333 512l55.466667-55.466667c17.066667-17.066667 17.066667-42.666667 0-59.733333s-42.666667-17.066667-59.733333 0L768 452.266667l-55.466667-55.466667c-17.066667-17.066667-42.666667-17.066667-59.733333 0s-17.066667 42.666667 0 59.733333l55.466667 55.466667-55.466667 55.466667c-17.066667 17.066667-17.066667 42.666667 0 59.733333s42.666667 17.066667 59.733333 0l55.466667-55.466667 55.466667 55.466667c8.533333 8.533333 21.333333 12.8 29.866666 12.8s21.333333-4.266667 29.866667-12.8c17.066667-17.066667 17.066667-42.666667 0-59.733333L827.733333 512z" p-id="4078"></path></svg>